<svg width="100" height="35" viewBox="0 0 100 35" fill="none" xmlns="http://www.w3.org/2000/svg">
<path d="M93.0448 27.8761V13.9381H86.0896V27.8761H93.0448ZM79.1345 34.8451V6.96903H100V34.8451H79.1345Z" fill="black"/>
<path d="M46.677 6.96903H60.6646V0.154867H67.6198V7.12389H74.575V14.0929H67.6198V28.031H74.575V35H60.6646V13.9381H46.677V27.8761H53.6321V34.8451H39.7218V13.9381H32.7666V6.96903H39.7218V0H46.677V6.96903Z" fill="black"/>
<path d="M25.5796 34.8451V13.9381H32.5348V34.8451H25.5796ZM25.5796 6.96903V0H32.5348V6.96903H25.5796Z" fill="black"/>
<path d="M13.9104 27.8761V13.9381H6.95518V27.8761H13.9104ZM0 34.8451V6.96903H13.9104V0H20.8655V34.8451H0Z" fill="black"/>
</svg>
